<svg xmlns="http://www.w3.org/2000/svg" viewBox="0 0 64 64" fill="none">
  <rect width="64" height="64" rx="14" fill="#232F3E"/>
  <path d="M20.5 35.2c0 .6.1 1.1.2 1.4.2.4.3.8.6 1.2.1.2.1.3.1.4 0 .2-.1.3-.3.5l-1.1.7c-.1.1-.3.1-.4.1-.2 0-.3-.1-.5-.3-.2-.2-.4-.5-.5-.8-.1-.3-.3-.7-.5-1.1-1.3 1.5-2.9 2.3-4.8 2.3-1.4 0-2.5-.4-3.3-1.2-.8-.8-1.2-1.8-1.2-3.1 0-1.4.5-2.5 1.5-3.3s2.3-1.2 4-1.2c.6 0 1.1 0 1.7.1.6.1 1.2.2 1.8.3v-1.2c0-1.2-.3-2.1-.8-2.6-.5-.5-1.4-.8-2.7-.8-.6 0-1.2.1-1.8.2-.6.2-1.2.4-1.8.6-.3.1-.5.2-.6.2-.1 0-.2 0-.2-.2-.1-.2-.1-.5-.1-.8 0-.2 0-.4.1-.5s.2-.2.4-.3c.6-.3 1.3-.5 2.1-.7.8-.2 1.6-.3 2.5-.3 1.9 0 3.3.4 4.2 1.3.9.9 1.3 2.2 1.3 3.9v5.2h.2zm-6.6 2.5c.5 0 1.1-.1 1.7-.3.6-.2 1.1-.6 1.6-1.1.3-.3.5-.7.6-1.1.1-.4.2-.9.2-1.5v-.7c-.5-.1-1-.2-1.5-.2-.5-.1-1-.1-1.5-.1-1.1 0-1.9.2-2.4.6-.5.4-.8 1-.8 1.8 0 .7.2 1.3.6 1.7.4.5 1 .7 1.7.7l-.2.2z" fill="#FF9900"/>
  <path d="M30 39.8c-.3 0-.4-.1-.6-.3-.1-.2-.2-.5-.3-1l-3.3-10.8c-.1-.3-.1-.5-.1-.6 0-.2.1-.4.4-.4h1.6c.3 0 .5.1.6.3.1.2.2.5.3.9l2.3 9.2 2.2-9.2c.1-.4.2-.7.3-.9.1-.2.3-.3.6-.3h1.3c.3 0 .5.1.6.3.1.2.2.5.3.9l2.2 9.3 2.4-9.3c.1-.4.2-.7.3-.9.1-.2.3-.3.6-.3h1.5c.2 0 .4.1.4.4 0 .1 0 .2 0 .3s-.1.2-.1.4L39.7 38.5c-.1.4-.2.7-.3 1-.1.2-.3.3-.6.3h-1.4c-.3 0-.5-.1-.6-.3-.1-.2-.2-.5-.3-.9L34.4 29.5l-2.1 9c-.1.4-.2.7-.3.9-.1.2-.3.3-.6.3H30z" fill="#FF9900"/>
  <path d="M49.4 40.1c-.9 0-1.8-.1-2.6-.3-.8-.2-1.5-.5-1.9-.8-.3-.2-.4-.4-.5-.5 0-.1-.1-.3-.1-.4v-.9c0-.3.1-.4.3-.4.1 0 .2 0 .3.1.1.1.3.1.4.2.6.3 1.2.5 1.9.6.7.2 1.3.2 2 .2 1.1 0 1.9-.2 2.4-.6.5-.4.8-.9.8-1.6 0-.5-.1-.9-.4-1.2-.3-.3-.9-.6-1.7-.9l-2.4-.7c-1.2-.4-2.1-.9-2.7-1.6-.5-.6-.8-1.4-.8-2.3 0-.7.1-1.2.4-1.7.3-.5.7-.9 1.2-1.3.5-.3 1.1-.6 1.7-.8.7-.2 1.3-.3 2.1-.3.4 0 .8 0 1.2.1.4.1.8.2 1.2.3.4.1.7.2 1 .4.3.1.6.3.7.4.2.1.3.3.4.4.1.2.1.4.1.6v.8c0 .3-.1.4-.3.4-.1 0-.3-.1-.5-.2-.8-.4-1.7-.5-2.7-.5-1 0-1.8.2-2.3.5-.5.3-.7.9-.7 1.5 0 .5.2.9.5 1.2.3.3.9.6 1.8.9l2.3.7c1.2.4 2 .9 2.5 1.5.5.6.8 1.3.8 2.2 0 .7-.1 1.3-.4 1.8-.3.5-.7 1-1.2 1.4-.5.4-1.1.7-1.8.9-.8.2-1.5.4-2.4.4z" fill="#FF9900"/>
  <path d="M50.8 44.5c-5.5 2.8-11.3 4.2-17.5 4.2-8.3 0-15.7-2.5-21.3-6.7-.4-.3-.1-.8.5-.5 6.1 2.9 13.6 4.6 21.3 4.6 5.2 0 11-0.9 16.3-2.7.8-.3 1.5.4.7 1.1z" fill="#FF9900"/>
  <path d="M52.7 42.3c-.6-.6-3.7-.3-5.2-.2-.4 0-.5-.3-.1-.6 2.5-1.5 6.6-1.1 7.1-.6.5.5-.1 4.2-2.5 5.9-.4.3-.7.1-.5-.2.5-1.1 1.6-3.6 1.2-4.3z" fill="#FF9900"/>
</svg>
